<?xml version="1.0" standalone="no"?>
<!DOCTYPE svg PUBLIC "-//W3C//DTD SVG 20010904//EN"
 "http://www.w3.org/TR/2001/REC-SVG-20010904/DTD/svg10.dtd">
<svg version="1.0" xmlns="http://www.w3.org/2000/svg"
 width="225.000000pt" height="225.000000pt" viewBox="0 0 225.000000 225.000000"
 preserveAspectRatio="xMidYMid meet">
<metadata>
Created by potrace 1.16, written by Peter Selinger 2001-2019
</metadata>
<g transform="translate(0.000000,225.000000) scale(0.100000,-0.100000)"
fill="#000000" stroke="none">
<path d="M380 1964 c-60 -193 -18 -398 95 -458 22 -11 42 -22 45 -24 2 -2 -2
-7 -10 -12 -11 -7 0 -31 52 -122 39 -66 61 -114 54 -116 -9 -2 -5 -90 16 -350
34 -438 34 -402 3 -402 l-25 0 0 -120 0 -120 540 0 540 0 0 120 0 120 -25 0
c-31 0 -31 -30 4 400 20 229 26 347 19 351 -6 4 30 83 87 193 l96 186 30 -15
c16 -9 29 -18 29 -20 0 -3 -36 -78 -81 -167 l-81 -162 22 -18 c12 -10 25 -18
29 -18 7 0 204 391 199 395 -2 1 -27 14 -55 29 -29 14 -53 31 -53 36 0 6 16
41 35 79 l34 69 -22 15 c-13 8 -68 38 -124 66 l-101 50 -184 -359 c-158 -311
-186 -360 -205 -360 l-23 0 0 211 0 211 -77 164 c-42 90 -77 163 -79 162 -1
-2 -34 -79 -73 -172 l-71 -168 0 -204 c0 -117 -4 -204 -9 -204 -5 0 -60 90
-123 200 -89 159 -117 200 -130 196 -14 -3 -18 2 -18 27 0 51 -33 91 -128 156
-87 60 -128 101 -184 185 l-26 38 -22 -68z m194 -211 c38 -26 78 -60 89 -74
18 -26 19 -28 2 -56 -24 -40 -75 -73 -115 -73 -25 0 -42 9 -70 39 -45 47 -60
100 -60 213 l0 82 43 -42 c23 -22 73 -63 111 -89z m1314 42 c3 -3 -35 -84 -43
-93 -6 -7 -125 59 -125 69 0 5 9 28 20 49 l20 40 63 -31 c34 -17 63 -33 65
-34z m-137 -125 l60 -31 -105 -202 -104 -202 -81 -3 -82 -3 42 83 c76 153 201
388 205 388 3 0 32 -14 65 -30z m-501 -260 l0 -180 -25 0 -25 0 0 180 0 180
25 0 25 0 0 -180z m-120 78 c0 -51 3 -130 7 -175 l6 -83 -27 0 -26 0 0 175 c0
168 1 175 20 175 19 0 20 -7 20 -92z m-300 -90 c47 -83 87 -155 88 -159 2 -5
-11 -9 -30 -9 -32 0 -35 3 -111 146 -73 137 -77 147 -60 160 10 7 20 13 23 14
3 0 43 -68 90 -152z m-167 50 c9 -18 38 -75 66 -125 l50 -93 -37 0 c-36 1 -38
2 -99 108 l-61 107 21 17 c31 25 41 22 60 -14z m961 -320 c-2 -18 -13 -150
-24 -293 -11 -143 -23 -281 -26 -307 l-6 -48 -418 0 -419 0 -5 33 c-7 40 -46
571 -46 615 l0 32 474 0 475 0 -5 -32z m-4 -763 l0 -55 -470 0 -470 0 0 55 0
55 470 0 470 0 0 -55z"/>
</g>
</svg>
